<svg width="307" height="77" viewBox="0 0 307 77" fill="none" xmlns="http://www.w3.org/2000/svg">
    <rect x="179" y="50" width="26" height="25" transform="rotate(-180 179 50)" fill="white"/>
    <rect x="153" y="25" width="26" height="25" transform="rotate(-180 153 25)" fill="white"/>
    <rect x="25" y="77" width="25" height="27" transform="rotate(-180 25 77)" fill="white"/>
    <rect x="127" y="50" width="26" height="25" transform="rotate(-180 127 50)" fill="white"/>
    <rect x="255" y="50" width="25" height="25" transform="rotate(-180 255 50)" fill="white"/>
    <rect x="102" y="77" width="25" height="27" transform="rotate(-180 102 77)" fill="white"/>
    <rect x="307" y="50" width="25" height="25" transform="rotate(-180 307 50)" fill="white"/>
    <rect x="128" y="77" width="26" height="27" transform="rotate(-180 128 77)" fill="white"/>
    <rect x="153" y="77" width="25" height="27" transform="rotate(-180 153 77)" fill="white"/>
</svg>
