<svg width="26" height="23" viewBox="0 0 26 23" fill="none" xmlns="http://www.w3.org/2000/svg">
<path d="M1.5 9.5459C0.671573 9.5459 7.24234e-08 10.2175 0 11.0459C-7.24234e-08 11.8743 0.671573 12.5459 1.5 12.5459L1.5 11.0459L1.5 9.5459ZM25.5607 12.1066C26.1464 11.5208 26.1464 10.571 25.5607 9.98524L16.0147 0.439298C15.4289 -0.146489 14.4792 -0.146489 13.8934 0.439298C13.3076 1.02508 13.3076 1.97483 13.8934 2.56062L22.3787 11.0459L13.8934 19.5312C13.3076 20.117 13.3076 21.0667 13.8934 21.6525C14.4792 22.2383 15.4289 22.2383 16.0147 21.6525L25.5607 12.1066ZM1.5 11.0459L1.5 12.5459L24.5 12.5459L24.5 11.0459L24.5 9.5459L1.5 9.5459L1.5 11.0459Z" fill="#7A4FF1"/>
</svg>