<svg width="47" height="47" viewBox="0 0 47 47" fill="none" xmlns="http://www.w3.org/2000/svg">
    <rect width="47" height="47" fill="#0F0F0F"/>
    <path d="M17.7401 15.5511C18.0314 15.2599 18.504 15.2599 18.7953 15.5511L21.5201 18.276C21.7762 18.5322 21.8111 18.9352 21.603 19.2317L20.6002 20.6597C20.2516 21.1562 20.2345 21.8172 20.5861 22.3115C21.9798 24.2707 23.6906 25.984 25.6476 27.3805C26.1373 27.7299 26.7922 27.7171 27.2883 27.3769L28.7541 26.3718C29.0504 26.1686 29.4496 26.2055 29.7036 26.4595L32.4326 29.1885C32.7238 29.4797 32.7242 29.9516 32.4333 30.2429L31.278 31.3982C30.4216 32.2546 29.1407 32.5269 28.0097 32.0936C22.433 29.9568 18.027 25.5508 15.8902 19.974C15.4568 18.843 15.7291 17.5622 16.5855 16.7057L17.7401 15.5511Z" fill="white"/>
</svg>
