<svg width="47" height="46" viewBox="0 0 47 46" fill="none" xmlns="http://www.w3.org/2000/svg">
    <rect width="47" height="46" fill="#0F0F0F"/>
    <path d="M30.8412 19.1667C32.1932 19.1667 33.2891 18.094 33.2891 16.7708C33.2891 15.4477 32.1932 14.375 30.8412 14.375C29.4893 14.375 28.3933 15.4477 28.3933 16.7708C28.3933 18.094 29.4893 19.1667 30.8412 19.1667Z" fill="white"/>
    <path d="M30.8412 19.1667C32.1932 19.1667 33.2891 18.094 33.2891 16.7708C33.2891 15.4477 32.1932 14.375 30.8412 14.375C29.4893 14.375 28.3933 15.4477 28.3933 16.7708C28.3933 18.094 29.4893 19.1667 30.8412 19.1667Z" fill="white"/>
    <path d="M32.0358 20.4224C31.3504 20.6332 30.5964 20.6716 29.8131 20.4799C28.501 20.1445 27.4337 19.1191 27.0714 17.8349C26.8952 17.212 26.8854 16.5987 26.9931 16.0428C27.1204 15.4295 26.6798 14.8545 26.0531 14.8545H18.6016C15.6641 14.8545 13.7058 16.292 13.7058 19.6462V26.3545C13.7058 29.7087 15.6641 31.1462 18.6016 31.1462H28.3933C31.3308 31.1462 33.2891 29.7087 33.2891 26.3545V21.3328C33.2891 20.7003 32.6625 20.2212 32.0358 20.4224ZM26.9441 22.1857L25.7887 23.0866C25.1425 23.5945 24.32 23.8437 23.4975 23.8437C22.675 23.8437 21.8427 23.5945 21.2062 23.0866L18.1414 20.6907C17.8281 20.4416 17.7791 19.9816 18.0239 19.6749C18.2785 19.3682 18.7387 19.3107 19.0521 19.5599L22.1169 21.9557C22.861 22.5403 24.1241 22.5403 24.8683 21.9557L26.0237 21.0549C26.3371 20.8057 26.8071 20.8537 27.0519 21.1699C27.3064 21.4766 27.2575 21.9366 26.9441 22.1857Z" fill="white"/>
</svg>
