<svg width="84" height="21" viewBox="0 0 84 21" fill="none" xmlns="http://www.w3.org/2000/svg">
    <path d="M33.2799 16.8929V3.72778H35.7667V9.14009H41.6544V3.72778H44.1411V16.8929H41.6544V11.4623H35.7667V16.8929H33.2799ZM57.4776 16.8929H54.9543V8.11614L49.2312 16.8929H46.7079V3.72778H49.2312V12.5045L54.9543 3.72778H57.4776V16.8929ZM60.0286 16.8929V3.72778H62.5154V9.79834L67.5254 3.72778H70.5607L65.057 10.2189L70.9081 16.8929H67.7631L62.5154 10.8954V16.8929H60.0286ZM71.2745 16.8929L75.2972 3.72778H79.009L83.0317 16.8929H80.4718L76.888 5.28199H77.3634L73.8344 16.8929H71.2745ZM73.6881 14.1501V11.828H80.6364V14.1501H73.6881Z" fill="white"/>
    <rect width="21" height="21" fill="white"/>
</svg>
