<svg width="18" height="18" viewBox="0 0 18 18" fill="none" xmlns="http://www.w3.org/2000/svg">
<path d="M0.43934 15.4393C-0.146447 16.0251 -0.146447 16.9749 0.43934 17.5607C1.02513 18.1464 1.97487 18.1464 2.56066 17.5607L1.5 16.5L0.43934 15.4393ZM18 1.5C18 0.671573 17.3284 5.64771e-07 16.5 8.59799e-07L3 1.68619e-08C2.17157 1.68619e-08 1.5 0.671573 1.5 1.5C1.5 2.32843 2.17157 3 3 3H15V15C15 15.8284 15.6716 16.5 16.5 16.5C17.3284 16.5 18 15.8284 18 15L18 1.5ZM1.5 16.5L2.56066 17.5607L17.5607 2.56066L16.5 1.5L15.4393 0.43934L0.43934 15.4393L1.5 16.5Z" fill="#7A4FF1"/>
</svg>
