<svg width="27" height="17" viewBox="0 0 27 17" fill="none" xmlns="http://www.w3.org/2000/svg">
    <path d="M14.6546 16.7244C5.8227 16.7244 0.785095 10.5495 0.575195 0.274414H4.99924C5.14456 7.81605 8.40608 11.0105 10.9895 11.6692V0.274414H15.1552V6.77867C17.7063 6.49874 20.3865 3.53477 21.2907 0.274414H25.4564C25.1157 1.96533 24.4365 3.56636 23.4614 4.97735C22.4862 6.38835 21.2361 7.57896 19.7891 8.47471C21.4043 9.29319 22.8309 10.4517 23.9747 11.8737C25.1186 13.2958 25.9538 14.949 26.4252 16.7244H21.8397C21.4165 15.1824 20.5565 13.802 19.3674 12.7562C18.1783 11.7105 16.713 11.046 15.1552 10.8459V16.7244H14.6546Z" fill="white"/>
</svg>
