<svg width="26" height="26" viewBox="0 0 26 26" fill="none" xmlns="http://www.w3.org/2000/svg">
    <path d="M21.8143 4.17363C19.4929 1.86035 16.3978 0.575195 13.1307 0.575195C6.33866 0.575195 0.836218 6.05853 0.836218 12.827C0.836218 14.9689 1.43805 17.1109 2.46976 18.9101L0.750244 25.2502L7.28439 23.5367C9.08988 24.4791 11.0673 24.9932 13.1307 24.9932C19.9228 24.9932 25.4252 19.5098 25.4252 12.7413C25.3393 9.57129 24.1356 6.48691 21.8143 4.17363ZM19.063 17.1965C18.8051 17.882 17.6015 18.5674 16.9996 18.6531C16.4838 18.7387 15.796 18.7387 15.1082 18.5674C14.6783 18.396 14.0765 18.2247 13.3887 17.882C10.2935 16.5968 8.3161 13.5124 8.14415 13.2554C7.9722 13.084 6.85451 11.6275 6.85451 10.0854C6.85451 8.54316 7.62829 7.85775 7.88622 7.51504C8.14415 7.17233 8.48805 7.17233 8.74597 7.17233C8.91793 7.17233 9.17585 7.17233 9.3478 7.17233C9.51975 7.17233 9.77768 7.08665 10.0356 7.68639C10.2935 8.28613 10.8954 9.82832 10.9813 9.914C11.0673 10.0854 11.0673 10.2567 10.9813 10.4281C10.8954 10.5994 10.8094 10.7708 10.6374 10.9421C10.4655 11.1135 10.2935 11.3705 10.2076 11.4562C10.0356 11.6275 9.86366 11.7989 10.0356 12.0559C10.2076 12.3986 10.8094 13.3411 11.7551 14.1979C12.9588 15.226 13.9045 15.5687 14.2484 15.74C14.5923 15.9114 14.7643 15.8257 14.9362 15.6544C15.1082 15.483 15.71 14.7976 15.882 14.4549C16.0539 14.1122 16.3118 14.1979 16.5698 14.2835C16.8277 14.3692 18.3752 15.1403 18.6332 15.3117C18.9771 15.483 19.149 15.5687 19.235 15.6544C19.321 15.9114 19.321 16.5111 19.063 17.1965Z" fill="white"/>
</svg>
